<?xml version="1.0" encoding="iso-8859-1"?>
<!-- Generator: Adobe Illustrator 19.0.0, SVG Export Plug-In . SVG Version: 6.00 Build 0)  -->
<svg version="1.1" id="Capa_1" xmlns="http://www.w3.org/2000/svg" xmlns:xlink="http://www.w3.org/1999/xlink" x="0px" y="0px"
	 viewBox="0 0 512 512" style="enable-background:new 0 0 512 512;" xml:space="preserve">
<path style="fill:#57A4FF;" d="M408.266,471.656H39.772c-17.814,0-32.255-14.441-32.255-32.255V63.827
	c0-8.668,7.027-15.694,15.694-15.694h401.614c8.668,0,15.694,7.027,15.694,15.694v375.574
	C440.52,457.215,426.079,471.656,408.266,471.656z"/>
<g>
	<path style="fill:#FFDA44;" d="M88.212,23.586v49.101c0,0.471-0.02,0.932-0.06,1.393c-0.711,8.197-7.596,14.64-15.973,14.64
		c-8.858,0-16.033-7.185-16.033-16.033V23.586c0-8.858,7.175-16.033,16.033-16.033c0.872,0,1.734,0.07,2.565,0.2
		c3.397,0.551,6.433,2.164,8.768,4.499C86.419,15.148,88.212,19.157,88.212,23.586z"/>
	<path style="fill:#FFDA44;" d="M150.341,23.586v49.101c0,0.471-0.02,0.932-0.06,1.393c-0.711,8.197-7.596,14.64-15.973,14.64
		c-8.858,0-16.033-7.185-16.033-16.033V23.586c0-8.858,7.175-16.033,16.033-16.033c0.872,0,1.734,0.07,2.565,0.2
		c3.397,0.551,6.433,2.164,8.768,4.499C148.547,15.148,150.341,19.157,150.341,23.586z"/>
	<path style="fill:#FFDA44;" d="M329.771,23.586v49.101c0,0.471-0.02,0.932-0.06,1.393c-0.711,8.197-7.596,14.64-15.973,14.64
		c-8.858,0-16.033-7.185-16.033-16.033V23.586c0-8.858,7.175-16.033,16.033-16.033c0.872,0,1.734,0.07,2.565,0.2
		c3.397,0.551,6.433,2.164,8.768,4.499C327.978,15.148,329.771,19.157,329.771,23.586z"/>
	<path style="fill:#FFDA44;" d="M391.9,23.586v49.101c0,0.471-0.02,0.932-0.06,1.393c-0.711,8.197-7.596,14.64-15.973,14.64
		c-8.858,0-16.033-7.185-16.033-16.033V23.586c0-8.858,7.175-16.033,16.033-16.033c0.872,0,1.734,0.07,2.565,0.2
		c3.397,0.551,6.433,2.164,8.768,4.499C390.106,15.148,391.9,19.157,391.9,23.586z"/>
</g>
<g>
	<path style="fill:#FFE477;" d="M88.212,23.586v49.101c0,0.471-0.02,0.932-0.06,1.393c-7.636-1.233-13.468-7.846-13.468-15.833
		V9.146c0-0.471,0.02-0.932,0.06-1.393c3.397,0.551,6.433,2.164,8.768,4.499C86.419,15.148,88.212,19.157,88.212,23.586z"/>
	<path style="fill:#FFE477;" d="M150.341,23.586v49.101c0,0.471-0.02,0.932-0.06,1.393c-7.636-1.233-13.468-7.846-13.468-15.833
		V9.146c0-0.471,0.02-0.932,0.06-1.393c3.397,0.551,6.433,2.164,8.768,4.499C148.547,15.148,150.341,19.157,150.341,23.586z"/>
	<path style="fill:#FFE477;" d="M329.771,23.586v49.101c0,0.471-0.02,0.932-0.06,1.393c-7.636-1.233-13.468-7.846-13.468-15.833
		V9.146c0-0.471,0.02-0.932,0.06-1.393c3.397,0.551,6.433,2.164,8.768,4.499C327.978,15.148,329.771,19.157,329.771,23.586z"/>
	<path style="fill:#FFE477;" d="M391.9,23.586v49.101c0,0.471-0.02,0.932-0.06,1.393c-7.636-1.233-13.468-7.846-13.468-15.833V9.146
		c0-0.471,0.02-0.932,0.06-1.393c3.397,0.551,6.433,2.164,8.768,4.499C390.106,15.148,391.9,19.157,391.9,23.586z"/>
</g>
<rect x="7.518" y="127.774" style="fill:#C2DFF6;" width="86.599" height="90.307"/>
<rect x="94.114" y="127.774" style="fill:#96C8EF;" width="86.599" height="90.307"/>
<rect x="180.713" y="127.774" style="fill:#C2DFF6;" width="86.599" height="90.307"/>
<rect x="267.322" y="127.774" style="fill:#96C8EF;" width="86.599" height="90.307"/>
<rect x="353.921" y="127.774" style="fill:#C2DFF6;" width="86.599" height="90.307"/>
<rect x="7.518" y="218.081" style="fill:#96C8EF;" width="86.599" height="89.285"/>
<rect x="94.114" y="218.081" style="fill:#C2DFF6;" width="86.609" height="89.285"/>
<rect x="180.713" y="218.081" style="fill:#96C8EF;" width="86.599" height="89.285"/>
<rect x="267.322" y="218.081" style="fill:#C2DFF6;" width="86.599" height="89.285"/>
<rect x="353.921" y="218.081" style="fill:#96C8EF;" width="86.599" height="89.285"/>
<rect x="7.518" y="307.365" style="fill:#C2DFF6;" width="86.599" height="89.285"/>
<rect x="94.114" y="307.365" style="fill:#96C8EF;" width="86.599" height="89.285"/>
<rect x="180.713" y="307.365" style="fill:#C2DFF6;" width="86.599" height="89.285"/>
<rect x="267.322" y="307.365" style="fill:#96C8EF;" width="86.599" height="89.285"/>
<rect x="353.921" y="307.365" style="fill:#C2DFF6;" width="86.599" height="89.285"/>
<path style="fill:#FF3501;" d="M504.603,435.356c0,34.151-24.781,62.519-57.338,68.091c-3.818,0.661-7.746,1.002-11.754,1.002
	c-38.159,0-69.093-30.934-69.093-69.093s30.934-69.093,69.093-69.093c4.008,0,7.936,0.341,11.754,1.002
	C479.821,372.836,504.603,401.205,504.603,435.356z"/>
<path style="fill:#FF6243;" d="M504.603,435.356c0,34.151-24.781,62.519-57.338,68.091c-32.567-5.572-57.349-33.93-57.349-68.091
	s24.781-62.519,57.349-68.091C479.821,372.836,504.603,401.205,504.603,435.356z"/>
<path d="M448.046,359.769c0-10.435-0.01-287.06-0.01-295.942c0-12.796-10.412-23.208-23.208-23.208h-25.413v-4.439
	c0-4.149-3.367-7.516-7.516-7.516c-4.159,0-7.516,3.367-7.516,7.516v36.505c0,4.69-3.828,8.518-8.518,8.518
	c-4.7,0-8.518-3.828-8.518-8.518V23.585c0-4.7,3.818-8.518,8.518-8.518c1.393,0,2.716,0.321,3.938,0.962
	c3.678,1.924,8.217,0.511,10.151-3.167c1.924-3.678,0.501-8.227-3.167-10.151c-3.357-1.754-7.125-2.676-10.923-2.676
	c-12.987,0-23.549,10.562-23.549,23.549V40.62h-15.031V23.585c0-12.987-10.572-23.549-23.549-23.549
	c-12.987,0-23.549,10.562-23.549,23.549V40.62H157.856V23.585c0-12.987-10.572-23.549-23.549-23.549
	c-12.987,0-23.549,10.562-23.549,23.549V40.62H95.728V23.585c0-12.987-10.572-23.549-23.549-23.549
	c-12.987,0-23.549,10.562-23.549,23.549V40.62H23.208C10.412,40.62,0,51.031,0,63.828v13.137c0,4.149,3.367,7.516,7.516,7.516
	s7.516-3.367,7.516-7.516V63.828c0-4.509,3.668-8.177,8.177-8.177H48.63v17.035c0,12.977,10.562,23.549,23.549,23.549
	c12.977,0,23.549-10.572,23.549-23.549V55.651h15.031v17.035c0,12.977,10.562,23.549,23.549,23.549
	c12.977,0,23.549-10.572,23.549-23.549V55.651H290.19v17.035c0,12.977,10.562,23.549,23.549,23.549
	c12.977,0,23.549-10.572,23.549-23.549V55.651h15.031v17.035c0,12.977,10.562,23.549,23.549,23.549
	c12.977,0,23.549-10.572,23.549-23.549V55.651h25.413c4.509,0,8.177,3.668,8.177,8.177v56.427H15.031v-13.227
	c0-4.149-3.367-7.516-7.516-7.516S0,102.879,0,107.027v332.377c0,21.925,17.847,39.762,39.772,39.762H372.6
	c13.979,20.122,37.187,32.798,62.91,32.798C528.4,511.964,541.534,375.106,448.046,359.769z M80.697,72.686
	c0,4.69-3.828,8.518-8.518,8.518c-4.7,0-8.518-3.828-8.518-8.518V23.585c0-4.7,3.818-8.518,8.518-8.518
	c4.69,0,8.518,3.818,8.518,8.518V72.686z M142.825,72.686c0,4.69-3.828,8.518-8.518,8.518c-4.7,0-8.518-3.828-8.518-8.518V23.585
	c0-4.7,3.818-8.518,8.518-8.518c4.69,0,8.518,3.818,8.518,8.518V72.686z M322.256,72.686c0,4.69-3.828,8.518-8.518,8.518
	c-4.7,0-8.518-3.828-8.518-8.518V23.585c0-4.7,3.818-8.518,8.518-8.518c4.69,0,8.518,3.818,8.518,8.518V72.686z M361.437,135.286
	h71.568v74.253h-71.568V135.286z M422.994,299.846h-51.076l25.533-26.334L422.994,299.846z M371.909,225.592h51.086l-25.543,26.334
	L371.909,225.592z M407.923,262.719l25.082-25.853v51.707L407.923,262.719z M361.437,236.384l25.553,26.334l-25.553,26.344V236.384z
	 M361.437,314.877h71.568v43.921c-23.609,0.762-44.933,12.346-58.581,30.323h-12.987V314.877z M274.838,135.286h71.568v74.253
	h-71.568L274.838,135.286L274.838,135.286z M336.315,299.846h-51.076l25.533-26.334L336.315,299.846z M285.229,225.592h51.086
	l-25.543,26.334L285.229,225.592z M321.244,262.719l25.162-25.934v51.867L321.244,262.719z M274.838,236.465l25.473,26.254
	l-25.473,26.254V236.465z M274.838,314.877h71.568v74.243h-71.568L274.838,314.877L274.838,314.877z M188.239,135.286h71.568v74.253
	h-71.568L188.239,135.286L188.239,135.286z M249.636,299.846H198.56l25.533-26.334L249.636,299.846z M198.55,225.592h51.086
	l-25.543,26.334L198.55,225.592z M234.565,262.719l25.242-26.024v52.048L234.565,262.719z M188.239,236.545l25.392,26.174
	l-25.392,26.174V236.545z M188.239,314.877h71.568v74.243h-71.568L188.239,314.877L188.239,314.877z M101.63,135.286h71.578v74.253
	H101.63C101.63,209.539,101.63,135.286,101.63,135.286z M162.957,299.846h-51.076l25.533-26.334L162.957,299.846z M111.871,225.592
	h51.086l-25.543,26.334L111.871,225.592z M147.886,262.719l25.322-26.104v52.208L147.886,262.719z M101.63,236.615l25.322,26.104
	l-25.322,26.104V236.615z M101.63,314.877h71.578v74.243H101.63C101.63,389.12,101.63,314.877,101.63,314.877z M15.031,135.286
	h71.568v74.253H15.031V135.286z M76.278,299.846H25.202l25.533-26.334L76.278,299.846z M25.192,225.592h51.086l-25.543,26.334
	L25.192,225.592z M61.206,262.719l25.392-26.174v52.348L61.206,262.719z M15.031,236.705l25.242,26.014l-25.242,26.024V236.705z
	 M15.031,314.877h71.568v74.243H15.031V314.877z M435.51,496.933c-28.357,0-52.98-19.164-59.794-46.807
	c-0.992-4.038-5.06-6.493-9.089-5.511c-4.038,0.992-6.493,5.07-5.511,9.099c0.882,3.597,2.014,7.075,3.367,10.422H39.772
	c-13.638,0-24.741-11.093-24.741-24.731v-35.253h350.494c-2.325,5.201-4.088,10.732-5.211,16.524
	c-0.792,4.068,1.864,8.017,5.942,8.808c4.078,0.792,8.017-1.874,8.808-5.942c6.406-33.075,38.895-55.491,72.971-48.49
	C521.101,390.082,508.905,496.933,435.51,496.933z"/>
<path d="M478.685,401.94c-3.049-2.813-7.804-2.62-10.62,0.43l-45.339,49.167l-19.296-25.553c-2.5-3.312-7.213-3.97-10.527-1.469
	c-3.313,2.501-3.97,7.214-1.469,10.527l24.718,32.735c2.827,3.743,8.35,4.005,11.523,0.566l51.439-55.782
	C481.929,409.508,481.737,404.754,478.685,401.94z"/>
<g>
</g>
<g>
</g>
<g>
</g>
<g>
</g>
<g>
</g>
<g>
</g>
<g>
</g>
<g>
</g>
<g>
</g>
<g>
</g>
<g>
</g>
<g>
</g>
<g>
</g>
<g>
</g>
<g>
</g>
</svg>
