<?xml version="1.0" encoding="iso-8859-1"?>
<!-- Generator: Adobe Illustrator 19.0.0, SVG Export Plug-In . SVG Version: 6.00 Build 0)  -->
<svg version="1.1" id="Capa_1" xmlns="http://www.w3.org/2000/svg" xmlns:xlink="http://www.w3.org/1999/xlink" x="0px" y="0px"
	 viewBox="0 0 511.999 511.999" style="enable-background:new 0 0 511.999 511.999;" xml:space="preserve">
<polygon style="fill:#3E9BD5;" points="229.423,379.043 486.196,379.043 486.196,66.741 25.804,66.741 25.804,379.043 "/>
<rect x="68.59" y="109.52" style="fill:#FFFBA1;" width="374.83" height="269.52"/>
<polygon style="fill:#FFAE4D;" points="246.822,238.605 281.658,238.605 280.698,270.594 334.279,238.605 443.414,238.605 
	443.414,109.524 246.822,109.524 "/>
<path d="M407.71,164.609c-2.64,0-5.21-1.069-7.07-2.93c-0.47-0.46-0.88-0.97-1.25-1.52c-0.36-0.54-0.67-1.12-0.92-1.73
	c-0.25-0.6-0.44-1.23-0.57-1.87s-0.19-1.3-0.19-1.95c0-0.649,0.06-1.31,0.19-1.96c0.13-0.63,0.32-1.26,0.57-1.869
	c0.25-0.601,0.56-1.181,0.92-1.721c0.37-0.55,0.78-1.06,1.25-1.52c2.32-2.32,5.77-3.391,9.02-2.74c0.64,0.13,1.27,0.32,1.87,0.57
	s1.18,0.56,1.73,0.92c0.54,0.37,1.05,0.79,1.52,1.25c0.46,0.46,0.88,0.97,1.24,1.52c0.36,0.54,0.67,1.12,0.92,1.721
	c0.25,0.609,0.44,1.239,0.57,1.869c0.13,0.65,0.2,1.311,0.2,1.96c0,0.65-0.07,1.311-0.2,1.95c-0.13,0.641-0.32,1.27-0.57,1.87
	c-0.25,0.61-0.56,1.19-0.92,1.73c-0.36,0.55-0.78,1.059-1.24,1.52c-0.47,0.46-0.98,0.88-1.52,1.24c-0.55,0.36-1.13,0.67-1.73,0.92
	s-1.23,0.441-1.87,0.57C409.02,164.54,408.36,164.609,407.71,164.609z"/>
<path d="M370.372,164.608H282.53c-5.523,0-10-4.477-10-10c0-5.522,4.477-10,10-10h87.842c5.523,0,10,4.478,10,10
	C380.372,160.131,375.895,164.608,370.372,164.608z"/>
<path d="M282.53,204.48c-0.65,0-1.31-0.069-1.96-0.199c-0.63-0.131-1.26-0.32-1.87-0.57c-0.6-0.25-1.18-0.561-1.72-0.92
	c-0.55-0.36-1.06-0.78-1.52-1.24s-0.88-0.97-1.24-1.52c-0.36-0.54-0.67-1.12-0.92-1.73c-0.25-0.6-0.45-1.23-0.57-1.87
	c-0.13-0.64-0.2-1.3-0.2-1.95c0-0.649,0.07-1.31,0.2-1.949c0.12-0.641,0.32-1.271,0.57-1.881c0.25-0.6,0.55-1.18,0.91-1.72
	c0.37-0.55,0.79-1.06,1.25-1.52s0.97-0.88,1.52-1.24c0.54-0.36,1.12-0.67,1.72-0.92c0.61-0.26,1.24-0.45,1.87-0.58
	c1.29-0.26,2.62-0.26,3.91,0c0.64,0.13,1.27,0.32,1.87,0.58c0.61,0.25,1.19,0.56,1.73,0.92c0.55,0.36,1.059,0.78,1.52,1.24
	c1.86,1.859,2.93,4.439,2.93,7.069c0,0.65-0.07,1.31-0.2,1.95c-0.12,0.64-0.32,1.27-0.57,1.87c-0.25,0.61-0.56,1.19-0.92,1.73
	c-0.36,0.55-0.78,1.059-1.24,1.52c-0.46,0.46-0.97,0.88-1.52,1.24c-0.54,0.359-1.12,0.67-1.73,0.92c-0.6,0.25-1.23,0.439-1.87,0.57
	C283.84,204.41,283.18,204.48,282.53,204.48z"/>
<path d="M407.706,204.48h-87.842c-5.523,0-10-4.478-10-10c0-5.523,4.477-10,10-10h87.842c5.523,0,10,4.477,10,10
	C417.706,200.002,413.228,204.48,407.706,204.48z"/>
<path style="fill:#FFAE4D;" d="M233.833,168.686c-4.867-6.202-14.277-8.29-19.336-8.349c-11.163-0.132-21.882-4.013-31.259-10.072
	c-4.186-2.705-9.154-4.637-15.201-4.637c-36.425,0-52.387,29.342-52.387,54.18c0,26.506,6.693,34.533,6.693,34.533
	s3.973-20.413,31.266-20.413c18.246,0,47.712-5.369,55.385-14.258c3.261,8.496,19.815,35.445,19.815,35.445
	S247.796,186.763,233.833,168.686z"/>
<path style="fill:#FFFBA1;" d="M153.609,213.928c-21.601,0-28.589,12.779-30.567,18.112v4.601c0,22.389,13.92,41.514,33.572,49.23
	l-8.332,23.421l0.572,0.736c13.724,17.666,40.418,17.666,54.143,0l0.572-0.736l-8.332-23.421
	c19.652-7.715,33.572-26.841,33.572-49.23v-1.526c0,0-16.554-26.949-19.815-35.445C201.321,208.559,171.855,213.928,153.609,213.928
	z"/>
<path style="fill:#3E9BD5;" d="M237.969,309.29h-34.401l-0.572,0.736c-13.724,17.666-40.418,17.666-54.143,0l-0.572-0.736H116.64
	c-10.583,0-19.161,8.578-19.161,19.161v50.591H257.13v-50.591C257.13,317.87,248.552,309.29,237.969,309.29z"/>
<path style="fill:#1578BE;" d="M10,379.043v43.464c0,12.565,10.186,22.751,22.751,22.751h446.497
	c12.565,0,22.751-10.186,22.751-22.751v-43.464H10z"/>
<path d="M502,369.043h-5.804V66.741c0-5.522-4.477-10-10-10H25.804c-5.523,0-10,4.478-10,10v302.302H10c-5.523,0-10,4.478-10,10
	v43.465c0,18.059,14.692,32.751,32.751,32.751h446.497c18.059,0,32.751-14.692,32.751-32.751v-43.465
	C512,373.521,507.523,369.043,502,369.043z M35.804,76.741h440.392v292.302h-22.782V238.605V109.523c0-5.522-4.477-10-10-10H246.821
	H68.586c-5.523,0-10,4.478-10,10v259.52H35.804V76.741z M433.414,369.043H267.13v-40.591c0-16.079-13.082-29.161-29.161-29.161
	h-27.344l-2.968-8.345c17.108-9.934,28.462-27.235,30.727-46.989c1.774,2.791,4.886,4.648,8.438,4.648h24.532l-0.651,21.688
	c-0.109,3.65,1.78,7.071,4.929,8.921c1.564,0.92,3.315,1.379,5.066,1.379c1.774,0,3.548-0.472,5.126-1.414l51.212-30.574h96.377
	L433.414,369.043L433.414,369.043z M143.624,319.29c0.126,0.135,0.26,0.261,0.388,0.395c0.236,0.246,0.475,0.487,0.715,0.727
	c0.334,0.333,0.673,0.66,1.016,0.982c0.247,0.231,0.495,0.461,0.747,0.686c0.354,0.316,0.713,0.624,1.075,0.927
	c0.252,0.212,0.504,0.424,0.761,0.63c0.382,0.306,0.772,0.6,1.163,0.893c0.247,0.185,0.491,0.373,0.742,0.552
	c0.44,0.314,0.888,0.614,1.338,0.911c0.212,0.14,0.419,0.287,0.633,0.423c1.341,0.853,2.725,1.631,4.147,2.331
	c0.216,0.107,0.438,0.202,0.656,0.305c0.499,0.236,0.999,0.468,1.507,0.685c0.27,0.115,0.544,0.22,0.816,0.33
	c0.465,0.187,0.93,0.372,1.402,0.543c0.295,0.107,0.593,0.206,0.89,0.307c0.458,0.155,0.917,0.306,1.381,0.446
	c0.308,0.093,0.617,0.181,0.928,0.268c0.464,0.129,0.93,0.251,1.399,0.366c0.312,0.076,0.623,0.15,0.937,0.22
	c0.48,0.106,0.964,0.201,1.449,0.292c0.306,0.057,0.611,0.115,0.918,0.166c0.511,0.084,1.026,0.154,1.542,0.22
	c0.286,0.037,0.57,0.079,0.858,0.11c0.582,0.063,1.168,0.109,1.755,0.149c0.224,0.016,0.446,0.039,0.671,0.052
	c0.819,0.045,1.642,0.071,2.469,0.071s1.65-0.026,2.468-0.071c0.226-0.012,0.449-0.036,0.674-0.052
	c0.586-0.041,1.171-0.086,1.751-0.149c0.289-0.032,0.575-0.074,0.862-0.111c0.514-0.066,1.027-0.136,1.536-0.219
	c0.309-0.051,0.616-0.11,0.924-0.167c0.483-0.09,0.964-0.185,1.443-0.291c0.316-0.07,0.629-0.144,0.943-0.221
	c0.466-0.114,0.93-0.235,1.391-0.364c0.313-0.087,0.625-0.176,0.936-0.27c0.459-0.139,0.915-0.289,1.369-0.443
	c0.302-0.102,0.603-0.203,0.902-0.312c0.465-0.169,0.924-0.351,1.382-0.535c0.279-0.112,0.56-0.22,0.836-0.338
	c0.499-0.213,0.989-0.442,1.479-0.673c0.227-0.107,0.457-0.206,0.682-0.317c0.71-0.35,1.413-0.716,2.103-1.105
	c0.014-0.008,0.028-0.017,0.042-0.025c0.675-0.38,1.339-0.78,1.993-1.197c0.224-0.142,0.441-0.296,0.663-0.443
	c0.44-0.291,0.88-0.584,1.31-0.892c0.255-0.182,0.504-0.375,0.755-0.563c0.387-0.289,0.773-0.58,1.151-0.883
	c0.26-0.208,0.514-0.423,0.77-0.637c0.359-0.301,0.715-0.605,1.065-0.918c0.255-0.228,0.506-0.46,0.756-0.694
	c0.34-0.319,0.676-0.643,1.007-0.974c0.243-0.242,0.484-0.486,0.722-0.734c0.127-0.132,0.259-0.257,0.384-0.391h29.743
	c5.051,0,9.161,4.109,9.161,9.161v40.591H107.479V328.45c0-5.052,4.11-9.161,9.161-9.161h26.984V319.29z M125.649,199.808
	c0-15.281,8.859-44.18,42.388-44.18c3.462,0,6.568,0.965,9.773,3.036c11.593,7.49,24.238,11.526,36.569,11.672
	c3.39,0.04,9.282,1.625,11.565,4.497c4.668,6.105,3.343,21.187-0.047,35.735c-0.094-0.166-0.19-0.333-0.283-0.497
	c-0.003-0.005-0.006-0.01-0.009-0.015c-0.212-0.374-0.422-0.744-0.629-1.113c-0.028-0.05-0.057-0.101-0.085-0.151
	c-0.183-0.326-0.365-0.649-0.544-0.969c-0.045-0.081-0.09-0.161-0.135-0.241c-0.162-0.29-0.322-0.577-0.48-0.861
	c-0.056-0.101-0.112-0.202-0.168-0.303c-0.146-0.263-0.289-0.524-0.431-0.782c-0.062-0.113-0.124-0.226-0.186-0.338
	c-0.136-0.248-0.27-0.493-0.402-0.737c-0.061-0.112-0.122-0.224-0.182-0.335c-0.125-0.23-0.246-0.455-0.367-0.68
	c-0.068-0.126-0.136-0.253-0.203-0.378c-0.11-0.205-0.217-0.406-0.323-0.606c-0.069-0.129-0.138-0.259-0.205-0.386
	c-0.106-0.201-0.209-0.397-0.311-0.592c-0.062-0.118-0.124-0.236-0.184-0.352c-0.099-0.19-0.193-0.374-0.288-0.558
	c-0.061-0.118-0.123-0.238-0.181-0.354c-0.087-0.171-0.17-0.336-0.253-0.501c-0.059-0.117-0.119-0.237-0.176-0.351
	c-0.079-0.159-0.153-0.31-0.227-0.462c-0.056-0.113-0.113-0.23-0.166-0.34c-0.07-0.145-0.135-0.282-0.201-0.421
	c-0.05-0.106-0.103-0.215-0.151-0.318c-0.065-0.139-0.124-0.269-0.184-0.402c-0.042-0.093-0.087-0.189-0.127-0.278
	c-0.058-0.13-0.108-0.249-0.161-0.371c-0.035-0.081-0.074-0.168-0.106-0.246c-0.081-0.193-0.154-0.375-0.22-0.545
	c-1.26-3.283-4.152-5.663-7.616-6.268c-3.466-0.608-6.992,0.653-9.29,3.316c-4.068,4.712-27.985,10.792-47.815,10.792
	c-0.819,0-1.621,0.019-2.411,0.05c-0.342,0.013-0.673,0.036-1.009,0.055c-0.42,0.024-0.84,0.047-1.252,0.079
	c-0.447,0.034-0.884,0.077-1.32,0.121c-0.257,0.026-0.513,0.053-0.767,0.082c-0.535,0.062-1.062,0.13-1.582,0.206
	c-0.091,0.013-0.181,0.027-0.271,0.042c-8.042,1.216-14.157,4.077-18.756,7.477C125.881,208.613,125.649,204.563,125.649,199.808z
	 M133.042,234.064c1.713-3.496,5.509-7.962,13.851-9.545c0.088-0.017,0.177-0.032,0.266-0.048c0.6-0.108,1.217-0.205,1.864-0.282
	c0.006-0.001,0.012-0.002,0.018-0.003c0.629-0.075,1.288-0.128,1.964-0.171c0.159-0.01,0.32-0.019,0.482-0.027
	c0.687-0.035,1.389-0.059,2.124-0.059c11.907,0,35.72-2.541,51.412-9.745c0.262,0.483,0.531,0.973,0.801,1.466
	c0.059,0.107,0.118,0.214,0.177,0.321c0.262,0.476,0.527,0.954,0.795,1.435c0.052,0.093,0.104,0.186,0.156,0.279
	c0.241,0.431,0.484,0.864,0.728,1.298c0.053,0.093,0.105,0.186,0.157,0.28c0.272,0.481,0.545,0.963,0.819,1.445
	c0.069,0.121,0.137,0.242,0.206,0.362c0.273,0.479,0.546,0.957,0.82,1.433c0.022,0.038,0.043,0.075,0.065,0.113
	c0.27,0.47,0.54,0.937,0.809,1.403c0.072,0.124,0.143,0.248,0.215,0.372c0.266,0.458,0.53,0.914,0.794,1.366
	c0.072,0.124,0.143,0.245,0.215,0.368c0.219,0.375,0.436,0.747,0.652,1.115c0.071,0.122,0.143,0.244,0.214,0.365
	c0.245,0.417,0.487,0.828,0.726,1.234c0.1,0.17,0.199,0.338,0.299,0.506c0.194,0.328,0.386,0.653,0.575,0.973
	c0.11,0.185,0.218,0.367,0.326,0.55c0.171,0.287,0.339,0.57,0.505,0.849c0.112,0.188,0.222,0.373,0.332,0.557
	c0.127,0.213,0.252,0.421,0.376,0.629c0.207,0.346,0.408,0.682,0.605,1.011c0.044,0.074,0.089,0.148,0.133,0.221
	c0.873,1.454,1.649,2.739,2.271,3.763c-0.49,17.237-11.06,32.325-27.21,38.665c-5.023,1.973-7.576,7.575-5.767,12.66l6.344,17.835
	c-0.036,0.033-0.075,0.064-0.111,0.096c-0.46,0.411-0.937,0.8-1.424,1.172c-0.098,0.075-0.194,0.152-0.293,0.225
	c-0.518,0.383-1.049,0.744-1.594,1.083c-0.105,0.066-0.213,0.128-0.319,0.192c-0.54,0.325-1.09,0.633-1.653,0.913
	c-0.034,0.017-0.066,0.036-0.1,0.053c-0.589,0.29-1.193,0.549-1.804,0.79c-0.121,0.048-0.242,0.095-0.364,0.141
	c-0.61,0.229-1.229,0.438-1.858,0.618c-0.075,0.021-0.15,0.038-0.225,0.059c-0.596,0.164-1.2,0.304-1.811,0.422
	c-0.096,0.019-0.191,0.041-0.288,0.058c-0.648,0.117-1.303,0.206-1.965,0.271c-0.124,0.012-0.248,0.021-0.373,0.032
	c-0.679,0.056-1.362,0.094-2.052,0.094s-1.373-0.037-2.052-0.094c-0.124-0.01-0.249-0.02-0.373-0.032
	c-0.661-0.065-1.316-0.154-1.964-0.271c-0.097-0.018-0.193-0.04-0.29-0.058c-0.609-0.118-1.212-0.258-1.807-0.421
	c-0.076-0.021-0.153-0.038-0.228-0.06c-0.628-0.179-1.246-0.388-1.856-0.617c-0.123-0.046-0.244-0.094-0.366-0.142
	c-0.611-0.241-1.214-0.5-1.803-0.79c-0.034-0.017-0.068-0.036-0.102-0.054c-0.564-0.281-1.113-0.589-1.654-0.914
	c-0.105-0.063-0.211-0.125-0.316-0.19c-0.546-0.34-1.079-0.701-1.597-1.085c-0.097-0.072-0.192-0.147-0.288-0.221
	c-0.492-0.376-0.972-0.768-1.437-1.183c-0.034-0.03-0.069-0.058-0.103-0.089l6.345-17.836c1.809-5.085-0.743-10.688-5.767-12.66
	c-16.54-6.493-27.227-22.164-27.227-39.921L133.042,234.064L133.042,234.064z M433.414,228.605h-99.135
	c-1.805,0-3.576,0.488-5.126,1.414l-37.912,22.634l0.413-13.748c0.081-2.703-0.936-5.323-2.819-7.264
	c-1.883-1.941-4.472-3.036-7.176-3.036h-24.837V119.523h176.592V228.605z M236.821,157.741c-6.857-5.256-15.732-7.327-22.206-7.403
	c-8.556-0.102-17.529-3.031-25.95-8.473c-6.406-4.139-13.346-6.237-20.628-6.237c-40.958,0-62.388,32.286-62.388,64.18
	c0,22.786,4.582,33.937,7.423,38.656c0.621,22.013,12.444,41.638,31.122,52.482l-2.968,8.345H116.64
	c-16.08,0-29.161,13.082-29.161,29.161v40.591h-8.892v-249.52h158.235v38.218H236.821z M492,422.508
	c0,7.031-5.72,12.751-12.751,12.751H32.751c-7.031,0-12.751-5.72-12.751-12.751v-33.465h5.785c0.007,0,0.013,0.001,0.019,0.001
	h42.782h28.892H257.13h186.284h42.782c0.007,0,0.013-0.001,0.019-0.001H492V422.508z"/>
<g>
</g>
<g>
</g>
<g>
</g>
<g>
</g>
<g>
</g>
<g>
</g>
<g>
</g>
<g>
</g>
<g>
</g>
<g>
</g>
<g>
</g>
<g>
</g>
<g>
</g>
<g>
</g>
<g>
</g>
</svg>
